<?xml version="1.0" encoding="UTF-8"?>
<svg id="Layer_1" xmlns="http://www.w3.org/2000/svg" version="1.1" viewBox="0 0 841.89 595.28">
  <!-- Generator: Adobe Illustrator 29.1.0, SVG Export Plug-In . SVG Version: 2.1.0 Build 142)  -->
  <defs>
    <style>
      .st0, .st1 {
        fill: #030308;
      }

      .st1 {
        fill-rule: evenodd;
      }
    </style>
  </defs>
  <path class="st1" d="M135.51,283.59c.38,25.74,18.84,45,43.32,48.12l-12.84,12.94,15.25,14.85c8.05-8.03,17.96-17.93,27.26-27.79,12.57-13.33,23.31-28.43,23.31-48.1,0-26.54-21.42-48.12-47.75-48.12s-48.54,21.64-48.54,48.1ZM183.65,256.36c-15.04,0-27.29,12.25-27.29,27.29s12.25,27.29,27.29,27.29,27.29-12.25,27.29-27.29-12.25-27.29-27.29-27.29Z"/>
  <path class="st1" d="M257.51,325.38c-9.46,0-18.2-3.16-25.21-8.49,3.4-5.93,6.05-12.31,7.61-19.29,4.12,5.18,10.48,8.52,17.6,8.52,12.39,0,22.47-10.09,22.47-22.47s-10.09-22.47-22.47-22.47c-7.16,0-13.55,3.37-17.67,8.6-1.65-6.81-4.51-13.14-8.34-18.75,7.14-5.7,16.18-9.12,26.01-9.12,23.02,0,41.73,18.72,41.73,41.73s-18.72,41.74-41.73,41.74Z"/>
  <path class="st0" d="M605.83,293.62c0,14.67,9.74,25.34,23.46,25.34,7.11,0,12.51-2.43,15.74-6.17l.25,6.17h12.72v-70.63h-12.72v26.92c-3.23-4.05-8.22-6.88-15.99-6.88-13.72,0-23.46,10.47-23.46,25.24ZM631.97,280.01c7.62,0,13.17,5.82,13.17,13.56s-5.55,13.76-13.17,13.76-13.12-6.07-13.12-13.76,5.4-13.56,13.12-13.56Z"/>
  <path class="st0" d="M564.38,318.96v-28.07c0-6.75,5.12-10.41,10.91-10.41s10.2,3.66,10.2,10.41v28.07h13.12v-31.42c0-11.73-8.05-19.14-19.42-19.14-7.33,0-12.61,3.25-15.17,6.65l-.26-6.65h-12.51v50.56h13.12Z"/>
  <path class="st0" d="M517.95,318.96c15,0,26.08-10.92,26.08-25.28s-11.09-25.28-26.08-25.28-26.08,10.97-26.08,25.28,11.13,25.28,26.08,25.28ZM504.83,293.68c0-7.74,5.49-13.5,13.12-13.5s13.12,5.76,13.12,13.5-5.44,13.55-13.12,13.55-13.12-5.77-13.12-13.55Z"/>
  <path class="st0" d="M461.54,318.96c9.2,0,18.35-4.69,22.84-13.51l-9.45-6.55c-3.32,5.9-7.77,8.37-13.08,8.37-7.51,0-13.13-5.85-13.13-13.36s5.47-13.61,13.34-13.61c4.75,0,9.76,2.57,12.62,8.17l9.97-6.25c-4.5-9.07-13.59-13.81-22.79-13.81-14.56,0-26.17,11.09-26.17,25.26s11.14,25.31,25.86,25.31Z"/>
  <path class="st0" d="M405.34,318.96c8.63,0,17.2-4.09,21.8-11.67l-9.29-6.87c-3.17,4.6-7.35,6.82-12.2,6.82-6.23,0-12.1-3.99-13.07-9.7h35.43c.31-1.92.46-3.74.46-5.51,0-14.7-10.26-23.64-23.74-23.64-14.55,0-25.17,10.41-25.22,25.21,0,14.14,10.11,25.36,25.83,25.36ZM392.78,288.86c.71-5.51,5.61-9.55,12.1-9.55s10.72,4.14,11.38,9.55h-23.48Z"/>
  <path class="st0" d="M318.5,302.78c4.13,9.3,14.42,16.22,27.77,16.22,12.33,0,26.04-6.62,26.04-20.07s-10.8-17.04-23.8-21.58c-8.66-3.03-13.71-3.84-13.71-9.35,0-4.5,4.74-7.33,10.09-7.33,7.34,0,12.33,5.05,15.34,10.06l10.6-7.48c-4.38-7.63-13.05-14.91-25.58-14.91-11.72,0-24.51,6.77-24.51,19.71s10.85,17.29,24.15,21.43c8.26,2.58,13.4,5.01,13.4,9.55s-5.25,7.63-11.87,7.63c-8.31,0-14.52-4.55-17.79-11.17l-10.14,7.28Z"/>
  <path class="st0" d="M665.23,307.69c4.41,6.88,12.12,11.27,21.71,11.27,10.4,0,19.22-5.92,19.22-15.07,0-9.61-6.9-13.1-17.75-15.73-6.04-1.47-9.13-2.33-9.13-4.95,0-2.43,2.89-3.89,7.1-3.89,5.17,0,8.77,2.63,10.91,6.02l8.32-6.83c-3.5-5.26-9.64-10.11-19.53-10.11-10.6,0-19.02,5.86-19.02,14.97,0,9.96,7.51,13.35,18.16,15.73,5.93,1.32,8.52,2.23,8.52,4.8,0,2.73-3.04,4.25-6.95,4.25-4.92,0-9.89-2.93-12.83-7.48l-8.72,7.03Z"/>
</svg>