<?xml version="1.0" encoding="UTF-8"?>
<svg id="Layer_1" xmlns="http://www.w3.org/2000/svg" version="1.1" viewBox="0 0 452 237">
  <!-- Generator: Adobe Illustrator 29.1.0, SVG Export Plug-In . SVG Version: 2.1.0 Build 142)  -->
  <defs>
    <style>
      .st0 {
        fill-rule: evenodd;
      }
    </style>
  </defs>
  <path d="M201.65,137.76l-35.75-89.24h-36.72l57.63,130.83-3.16,7.3c-6.57,14.35-15.32,21.4-25.78,21.4-5.11,0-10.7-1.46-16.78-4.38l-5.11,26.75c6.08,4.13,14.35,6.32,24.32,6.32,25.05,0,41.1-15.32,53.74-47.66l53.5-140.55h-34.53l-31.37,89.24Z"/>
  <path d="M358.55,180.18v-71.25c0-20.67,13.38-35.26,32.1-35.26,17.51,0,28.94,12.64,28.94,34.77v71.74h31.86v-80.49c0-17.75-5.11-31.13-15.08-40.61-9.97-9.48-22.37-14.35-36.72-14.35-19.21,0-34.53,8.51-41.58,21.89v-18.48h-31.13v132.04h31.61Z"/>
  <path d="M269.16,48.51h-34.86l48.74,131.72h34.86l-48.74-131.72Z"/>
  <path d="M101.09,48.51h-34.86l48.74,131.72h34.86L101.09,48.51Z"/>
  <path d="M77.57,82.19L144.69,0h-40.12L33.07,88.27V0H0v179.7h33.07v-45.72l22.62-27.48,21.89-24.32Z"/>
  <path class="st0" d="M225.14,130.59c14.86,14.86,38.94,14.86,53.8,0l16.68,16.68c-24.07,24.07-63.09,24.07-87.15,0l16.68-16.68Z"/>
</svg>