<?xml version="1.0" encoding="UTF-8"?>
<svg id="Layer_1" xmlns="http://www.w3.org/2000/svg" version="1.1" viewBox="0 0 229 46">
  <!-- Generator: Adobe Illustrator 29.1.0, SVG Export Plug-In . SVG Version: 2.1.0 Build 142)  -->
  <path d="M33.04,34.93h-1.75c-.82,0-1.04-.23-1.04-1.05V11.35c0-.82.23-1.05,1.04-1.05h1.75c.82,0,1.04.23,1.04,1.05v22.54c.03.82-.23,1.05-1.04,1.05ZM45.71,17.3c4.99,0,7.55,2.58,7.55,6.65v4.67c0,4.08-2.68,6.65-7.55,6.65s-7.55-2.58-7.55-6.65v-4.67c0-4.08,2.68-6.65,7.55-6.65ZM45.71,20.81c-2.45,0-3.72,1.16-3.72,3.14v4.67c0,1.98,1.38,3.14,3.72,3.14s3.72-1.16,3.72-3.14v-4.67c.11-1.98-1.27-3.14-3.72-3.14ZM64.41,17.3c3.94,0,6.28,1.87,7.1,4.33.22.82,0,1.27-.7,1.53l-1.38.45c-.82.34-1.15.11-1.52-.71-.59-1.39-1.63-2.21-3.61-2.21-2.45,0-3.61,1.16-3.61,3.26v4.67c0,2.1,1.27,3.26,3.61,3.26,1.97,0,3.01-.82,3.61-2.32.34-.82.59-.93,1.52-.71l1.52.45c.82.34,1.04.71.7,1.53-1.04,2.8-3.38,4.45-7.32,4.45-4.99,0-7.32-2.58-7.32-6.77v-4.45c-.25-4.08,2.17-6.77,7.41-6.77ZM81.6,17.3c5.46,0,7.1,2.92,7.1,6.77v8.41c0,1.16-.23,1.53-1.15,1.87-1.27.59-3.24.93-5.92.93-5.8,0-7.32-1.98-7.32-5.38,0-3.85,2.2-5.12,7.44-5.12,1.27,0,2.56.11,3.13.11v-1.05c0-2.1-.82-3.26-3.24-3.26-1.63,0-2.79.59-3.49,1.64-.45.71-.7.82-1.38.45l-1.27-.59c-.82-.34-.93-.71-.59-1.53,1.01-1.84,3.21-3.26,6.7-3.26ZM81.26,27.83c-2.56,0-3.13.82-3.13,2.21,0,1.27.59,2.21,3.13,2.21,1.75,0,2.68-.23,3.24-.34q.34-.11.34-.45v-3.51c-.68,0-2.31-.11-3.58-.11ZM95.76,34.93h-1.75c-.82,0-1.04-.23-1.04-1.05V11.35c0-.82.22-1.05,1.04-1.05h1.75c.82,0,1.04.23,1.04,1.05v22.54c0,.82-.23,1.05-1.04,1.05ZM107.62,17.3c3.83,0,6.03,1.39,7.1,3.51.34.82.11,1.16-.59,1.53l-1.52.59c-.82.34-.93.23-1.38-.45-.59-1.05-1.38-1.76-3.6-1.76s-3.13.59-3.13,1.87c0,1.53,1.27,1.76,3.83,1.98,3.94.34,6.73,1.27,6.73,5.12,0,3.26-2.45,5.61-7.21,5.61-3.83,0-6.28-1.39-7.32-3.96-.34-.71-.11-1.16.59-1.39l1.52-.45c.7-.23,1.04-.11,1.38.59.59,1.27,1.75,1.87,3.72,1.87,2.31,0,3.49-.71,3.49-1.98,0-1.53-1.27-1.87-3.94-2.1-3.24-.34-6.73-.82-6.73-5.12.22-3.23,2.53-5.46,7.07-5.46ZM125.85,17.3c5.24,0,7.66,3.03,7.66,6.77v1.98c0,.82-.34,1.39-1.52,1.39h-9.97v1.16c0,2.21,1.38,3.26,3.72,3.26,1.97,0,3.24-.71,3.94-1.76.59-.71.93-.82,1.75-.34l1.15.59c.82.34.82.93.34,1.64-1.15,1.98-3.38,3.14-7.1,3.14-5.46,0-7.55-3.03-7.55-7.13v-3.85c-.09-4.28,2.59-6.85,7.58-6.85ZM125.85,20.58c-2.45,0-3.83,1.27-3.83,3.26v.82h7.66v-.71c0-2.1-1.38-3.37-3.83-3.37ZM143.73,17.3c5.46,0,7.1,2.92,7.1,6.77v8.41c0,1.16-.23,1.53-1.15,1.87-1.27.59-3.24.93-5.92.93-5.8,0-7.32-1.98-7.32-5.38,0-3.85,2.2-5.12,7.44-5.12,1.27,0,2.56.11,3.13.11v-1.05c0-2.1-.82-3.26-3.24-3.26-1.63,0-2.79.59-3.49,1.64-.45.71-.7.82-1.38.45l-1.27-.59c-.82-.34-.93-.71-.59-1.53,1.01-1.84,3.24-3.26,6.7-3.26ZM143.39,27.83c-2.56,0-3.13.82-3.13,2.21,0,1.27.59,2.21,3.13,2.21,1.75,0,2.68-.23,3.24-.34q.34-.11.34-.45v-3.51c-.68,0-2.31-.11-3.58-.11ZM163.48,17.3c.82,0,1.04.23,1.04,1.05v1.53c0,.82-.22,1.05-1.04,1.05h-1.15c-1.27,0-2.31.11-3.13.34-.22.11-.34.23-.34.34v12.15c0,.82-.23,1.05-1.04,1.05h-1.75c-.82,0-1.04-.23-1.04-1.05v-13.53c0-1.05.23-1.53,1.27-1.87,1.27-.45,3.13-.93,6.17-1.05h1.01ZM173.95,17.3c3.94,0,6.28,1.87,7.1,4.33.23.82,0,1.27-.7,1.53l-1.38.45c-.82.34-1.16.11-1.52-.71-.59-1.39-1.63-2.21-3.6-2.21-2.45,0-3.61,1.16-3.61,3.26v4.67c0,2.1,1.27,3.26,3.61,3.26,1.97,0,3.01-.82,3.6-2.32.34-.82.59-.93,1.52-.71l1.52.45c.82.34,1.04.71.7,1.53-1.04,2.8-3.38,4.45-7.32,4.45-4.99,0-7.32-2.58-7.32-6.77v-4.45c-.17-4.08,2.17-6.77,7.41-6.77ZM188.46,11.35v6.54c1.04-.23,2.2-.45,3.94-.45,4.76,0,6.85,2.46,6.85,6.65v9.8c0,.82-.23,1.05-1.04,1.05h-1.86c-.82,0-1.04-.23-1.04-1.05v-9.68c0-2.1-1.27-3.26-3.61-3.26-1.63,0-3.13.34-3.38.45v12.49c0,.82-.23,1.05-1.04,1.05h-1.75c-.82,0-1.04-.23-1.04-1.05V11.35c0-.82.22-1.05,1.04-1.05h1.75c.96,0,1.18.23,1.18,1.05Z"/>
</svg>