<?xml version="1.0" encoding="UTF-8"?>
<svg id="Layer_3" xmlns="http://www.w3.org/2000/svg" version="1.1" viewBox="0 0 421.31 125.36">
  <!-- Generator: Adobe Illustrator 29.1.0, SVG Export Plug-In . SVG Version: 2.1.0 Build 142)  -->
  <defs>
    <style>
      .st0 {
        isolation: isolate;
        stroke: #000;
        stroke-miterlimit: 10;
      }
    </style>
  </defs>
  <path class="st0" d="M263.34,55.33v-12.22c0-4.86-3.93-8.79-8.78-8.79s-8.79,3.93-8.79,8.79v12.23c0,1.66-.33,3.22-.93,4.65-.61,1.42-1.48,2.71-2.57,3.8-2.19,2.18-5.12,3.49-8.46,3.5-1.05,0-2.06-.14-3.02-.39,1.6-3.63,2.49-7.63,2.5-11.85V11.8c0-4.85-3.93-8.79-8.78-8.79s-8.79,3.94-8.79,8.79v16.19c-1.83-.81-3.76-1.44-5.76-1.87-2-.42-4.07-.65-6.2-.65-8.07,0-15.39,3.24-20.72,8.49-5.32-5.24-12.63-8.47-20.7-8.47s-14.97,3.06-20.25,8.04c-5.29-4.97-12.44-8.04-20.26-8.04s-15.43,3.26-20.76,8.53c-5.33-5.27-12.66-8.53-20.75-8.53s-15.46,3.27-20.8,8.56c-5.34-5.29-12.68-8.56-20.8-8.56-16.29,0-29.49,13.19-29.52,29.48v43.24c0,4.86,3.93,8.79,8.78,8.79s8.79-3.93,8.79-8.79v-16.19s0,.01.01.01h0c3.65,1.61,7.69,2.51,11.94,2.52,8.12-.01,15.46-3.28,20.8-8.57,5.34,5.29,12.68,8.56,20.8,8.57,4.96-.01,9.64-1.25,13.75-3.41.04-.02.08-.04.12-.06.01.01.01.03.03.04,1.6,1.97,4.05,3.24,6.79,3.24s5.3-1.33,6.9-3.39c.05-.07.09-.13.14-.19.09-.12.18-.24.26-.36.06-.1.12-.2.18-.31.12-.19.23-.39.33-.59.07-.14.14-.28.2-.42.05-.1.08-.2.12-.3.06-.15.12-.3.17-.45.03-.1.06-.2.09-.31.05-.16.09-.32.13-.49.02-.09.04-.19.06-.29.04-.19.06-.37.09-.56.01-.09.02-.17.03-.25.02-.27.04-.55.04-.83v-19.12c.01-.08.01-.17.01-.25.01-.02.01-.04,0-.06v-.67c0-.15,0-.32-.01-.48v-.19c0-3.33,1.44-6.1,3.62-8.29,2.19-2.18,5.13-3.5,8.46-3.5,4.14,0,7.74,2.08,9.92,5.28.4.6.96,1.2,1.49,1.68-.28,1.62-.43,3.3-.43,5,0,16.31,13.22,29.52,29.53,29.53,4.98-.01,9.67-1.24,13.78-3.42,1.61,2.09,4.13,3.45,6.97,3.45s5.35-1.34,6.96-3.42c4.1,2.15,8.76,3.37,13.71,3.37,5.37,0,10.41-1.44,14.75-3.94,4.45,2.7,9.72,4.27,15.29,4.27h0c16.32,0,29.53-13.22,29.54-29.53,0,0-.01,0-.01,0ZM47.18,63.47c-2.19,2.18-5.12,3.5-8.46,3.5s-6.26-1.32-8.45-3.5c-2.14-2.16-3.45-5.04-3.49-8.31v-.29c.04-3.27,1.34-6.15,3.49-8.31,2.19-2.18,5.13-3.5,8.45-3.5s6.27,1.32,8.46,3.5c2.18,2.19,3.5,5.13,3.5,8.46s-1.32,6.26-3.5,8.45ZM92.22,56.11c-.26,2.88-1.51,5.41-3.45,7.36-2.19,2.18-5.12,3.5-8.45,3.5s-6.27-1.32-8.46-3.5c-2.18-2.19-3.5-5.13-3.5-8.45s1.32-6.27,3.5-8.46c2.19-2.18,5.13-3.5,8.46-3.5s6.26,1.32,8.45,3.5c2.02,2.03,3.28,4.7,3.47,7.72-.01.22-.02,1.83-.02,1.83ZM174.25,56.08c-.25,2.89-1.51,5.43-3.45,7.39-2.19,2.18-5.13,3.5-8.46,3.5s-6.26-1.32-8.45-3.5c-2.18-2.19-3.5-5.13-3.5-8.45s1.32-6.27,3.5-8.46c2.19-2.18,5.12-3.5,8.45-3.5s6.27,1.32,8.46,3.5c1.94,1.95,3.2,4.49,3.45,7.38,0,.35-.02.7-.02,1.06s.01.72.02,1.08ZM215.7,55.3c-.08,3.2-1.37,6.03-3.48,8.15-2.19,2.18-5.13,3.5-8.46,3.5s-6.26-1.32-8.45-3.5c-1.89-1.89-3.13-4.35-3.43-7.13v-1.34c0-.08,0-.16-.02-.25,0-.25,0-.5,0-.74.24-2.92,1.5-5.48,3.46-7.45,2.19-2.17,5.12-3.49,8.45-3.5,3.33,0,6.27,1.33,8.46,3.5,2.11,2.13,3.4,4.95,3.48,8.16v.6h0Z"/>
  <path class="st0" d="M174.18,54.01c.02.32.04.64.04.97s-.02.64-.04.96c.36,10.94,6.66,20.38,15.79,25.17,1.14-1.48,1.83-3.34,1.83-5.35v-19.5c-.04-.43-.07-.86-.07-1.3,0-.3.02-.6.04-.89-.24-7.88-3.56-14.98-8.8-20.14-5.23,5.14-8.54,12.22-8.79,20.08"/>
  <path class="st0" d="M410.26,54.75c-.14-16.19-13.3-29.26-29.52-29.27-8.08.01-15.39,3.26-20.73,8.51-5.33-5.26-12.65-8.5-20.73-8.51-8.08.01-15.4,3.26-20.73,8.51-5.33-5.26-12.66-8.5-20.74-8.51-16.32.01-29.52,13.22-29.53,29.53.01,16.32,13.21,29.52,29.53,29.53,16.31-.01,29.52-13.21,29.53-29.53v-.27s0-.07,0-.07c.09-3.19,1.4-6.01,3.49-8.12,2.19-2.18,5.13-3.49,8.45-3.5,3.33,0,6.26,1.32,8.45,3.5,2.07,2.08,3.35,4.81,3.49,7.91v.07c-.01.16-.02.31-.02.48v20.74c0,4.86,3.94,8.79,8.79,8.79h.04c.1,0,.2-.01.3-.02,4.71-.15,8.49-4.02,8.49-8.77v-20.74c0-.09-.01-.17-.01-.26v-.1s-.01,0-.01,0v-.1c.12-3.13,1.42-5.89,3.48-7.98,2.19-2.18,5.12-3.49,8.45-3.5,3.33,0,6.26,1.32,8.45,3.5,2.18,2.19,3.5,5.12,3.5,8.45,0,.04.01.07.01.1v20.64c0,4.86,3.93,8.79,8.79,8.79s8.79-3.93,8.79-8.79v-20.74c0-.08,0-.17-.01-.26ZM309.76,54.75v.44c-.05,3.26-1.36,6.12-3.5,8.27-2.19,2.18-5.12,3.5-8.45,3.5s-6.26-1.32-8.45-3.5c-2.18-2.19-3.5-5.12-3.5-8.45s1.32-6.26,3.5-8.45c2.19-2.18,5.12-3.49,8.45-3.5,3.33,0,6.26,1.32,8.45,3.5,2.12,2.13,3.43,4.96,3.5,8.19h0Z"/>
  <path class="st0" d="M109.72,54.4h.01c-.12-8-3.37-15.17-8.66-20.4-5.33,5.27-8.71,12.51-8.79,20.57,0,0,.01.02.01.03-.01.14-.02.28-.02.42v20.52c0,2.09.73,4,1.95,5.5,8.86-4.77,15.26-13.91,15.53-24.56v-1.65c-.01-.15-.02-.29-.03-.43Z"/>
  <path class="st0" d="M215.08,67.84c-2.68,4.05-1.58,9.5,2.47,12.18.3.2.65.37.96.56,5.41-3.12,9.74-7.93,12.28-13.69-1.25-.34-2.47-.82-3.53-1.52-1.49-.99-3.18-1.46-4.85-1.46-2.85,0-5.64,1.38-7.33,3.93"/>
  <path class="st0" d="M9.28,54.92v.43c.1,11.9,7.24,22.11,17.45,26.69v-28.17c-.61-4.25-4.26-7.52-8.68-7.52-4.78,0-8.66,3.82-8.77,8.57"/>
  <path class="st0" d="M174.3,54.39c0,.21,0,.42,0,.63h0v2.19c.54,7.37,3.78,13.98,8.74,18.86,2.05,2.02,4.4,3.74,6.98,5.09,1.14-1.48,1.83-3.33,1.83-5.35v-19.47c0-.09-.02-.18-.02-.26-.03-.34-.05-.69-.05-1.04,0-.25,0-.5.03-.75-.4-4.48-4.16-7.99-8.74-7.99-4.63,0-8.41,3.56-8.76,8.09"/>
  <path class="st0" d="M50.74,55.04c0,8.2,3.34,15.61,8.73,20.96,5.39-5.35,8.73-12.76,8.74-20.96,0-8.2-3.34-15.61-8.74-20.96-5.39,5.34-8.73,12.76-8.73,20.96"/>
  <path class="st0" d="M309.76,54.96v.11c.02,4.83,3.9,8.74,8.74,8.74s8.83-3.93,8.83-8.79v-.11c-.04-8.18-3.39-15.59-8.79-20.92-5.4,5.34-8.75,12.77-8.78,20.97"/>
  <path class="st0" d="M133.23,50.02c2.93,2.57,7.28,2.98,10.66.7,4.02-2.72,5.08-8.18,2.36-12.2-1.22-1.81-2.59-3.5-4.17-4.99-4.55,4.3-7.75,10.04-8.85,16.49"/>
  <path class="st0" d="M215.71,56.18c.61,4.25,4.26,7.52,8.68,7.52,4.78,0,8.78-3.82,8.89-8.58v-.46c-.11-11.89-7.37-22.1-17.58-26.67v28.19Z"/>
  <path class="st0" d="M254.71,13.26c-5.08,0-9.2,4.12-9.2,9.2s4.12,9.2,9.2,9.2,9.2-4.12,9.2-9.2-4.12-9.2-9.2-9.2Z"/>
  <path class="st0" d="M318.69,84.05c-4.87,0-8.81,3.95-8.81,8.81h0c0,3.31-1.32,6.22-3.48,8.4-2.18,2.16-5.09,3.48-8.4,3.48-3.71,0-6.95-1.66-9.16-4.32-3.1-3.75-8.65-4.28-12.4-1.17-3.75,3.1-4.28,8.65-1.18,12.4,5.38,6.53,13.61,10.71,22.74,10.71,16.29,0,29.49-13.2,29.5-29.5,0-4.87-3.94-8.81-8.81-8.81Z"/>
  <path class="st0" d="M368.82,55.01v20.74c0,4.75-3.78,8.62-8.49,8.77-.1.01-.2.02-.3.02h-.04c-4.85,0-8.79-3.93-8.79-8.79v-20.56s.02-.68.02-.68c.15-8.01,3.48-15.29,8.79-20.52,5.31,5.25,8.64,12.58,8.78,20.61,0,0,0,.03.01.04t.01,0v.1c0,.09,0,.18,0,.26Z"/>
  <path class="st0" d="M109.75,54.91v1.65c-.27,10.65-6.67,19.79-15.53,24.56-1.22-1.5-1.95-3.41-1.95-5.5v-20.52c0-4.83,3.91-8.74,8.74-8.74s8.64,3.81,8.74,8.55Z"/>
</svg>