<?xml version="1.0" encoding="UTF-8"?>
<svg id="Layer_1" xmlns="http://www.w3.org/2000/svg" version="1.1" viewBox="0 0 1131 250">
  <!-- Generator: Adobe Illustrator 29.1.0, SVG Export Plug-In . SVG Version: 2.1.0 Build 142)  -->
  <path d="M.99,250h67.68v-86.43h37.6c52.28,0,88.81-34.64,88.81-81.79S158.55,0,106.27,0H.99v250ZM68.67,108.93v-54.29h25.07c23.63,0,31.88,11.79,31.88,27.14s-8.23,27.14-31.88,27.14h-25.07ZM235.46,250h67.68v-90h16.48l64.81,90h80.21l-29.72-39.29-46.55-61.43c25.43-13.57,41.18-38.93,41.18-69.29.01-46.06-35.81-79.99-88.09-79.99h-105.99v250h0ZM303.14,105.36v-50.72h25.78c23.63,0,31.15,11.07,31.15,25.36s-7.52,25.36-31.15,25.36h-25.78ZM492.26,250h67.68V0h-67.68v250ZM623.99,250h63.74V110l73.06,110,72.33-110.36v140.36h63.74V0h-59.45l-76.64,111.07L684.15,0h-60.16v250ZM961.01,250h169.03v-60h-101.34v-36.43h81.29v-60h-81.29v-33.57h101.34V0h-169.03v250Z"/>
</svg>