<?xml version="1.0" encoding="UTF-8"?>
<svg id="Layer_1" data-name="Layer 1" xmlns="http://www.w3.org/2000/svg" viewBox="0 0 177.6 75.3">
  <defs>
    <style>
      .cls-1 {
        fill: #231f20;
      }
    </style>
  </defs>
  <g>
    <path class="cls-1" d="M72.05,1.97l-1.71-1.59c-.63-.55-1.58-.49-2.14.12l-16.94,18.9c-.55.63-.49,1.58.12,2.14l1.71,1.53c.63.55,1.58.49,2.14-.12l16.94-18.83c.56-.56.56-1.47,0-2.03-.04-.04-.08-.08-.13-.11Z"/>
    <path class="cls-1" d="M31.56,47.77h9.97c1.49.03,2.71-1.15,2.74-2.64.03-1.49-1.15-2.71-2.64-2.74-.03,0-.07,0-.1,0h-10.46c-6.31-.01-11.57-4.84-12.11-11.13-.61-7.16,5.32-13.15,12.48-13.15h4.83c4.59.07,9-1.82,12.11-5.2l3.55-4.04c.53-.56.5-1.44-.06-1.96-.02-.02-.04-.04-.06-.05l-1.9-1.65c-.56-.53-1.44-.5-1.96.06-.02.02-.04.04-.05.06l-3.61,4.1c-2.09,2.18-4.99,3.4-8.01,3.36h-5.25c-9.18.03-16.79,7.11-17.49,16.27-.68,10.15,7.77,18.71,18.04,18.71Z"/>
    <path class="cls-1" d="M41.04,27.53h-9.97c-1.49.03-2.67,1.26-2.64,2.74.03,1.45,1.19,2.61,2.64,2.64h10.46c6.31.01,11.57,4.84,12.11,11.13.61,7.15-5.32,13.15-12.47,13.15h-4.83c-4.59-.07-9,1.82-12.11,5.2l-3.55,4.03c-.53.56-.5,1.44.06,1.96.02.02.04.04.06.05l1.9,1.65c.56.53,1.44.5,1.96-.06.02-.02.04-.04.05-.06l3.61-4.1c2.09-2.18,4.99-3.4,8.01-3.36h5.26c9.18-.03,16.79-7.11,17.49-16.27.67-10.15-7.83-18.71-18.04-18.71Z"/>
    <path class="cls-1" d="M21.17,53.76l-1.71-1.53c-.63-.55-1.58-.49-2.14.12L.38,71.25c-.55.63-.49,1.58.12,2.14l1.71,1.53c.63.55,1.58.49,2.14-.12l16.88-18.9c.58-.5.63-1.38.13-1.96-.06-.07-.12-.13-.19-.18Z"/>
  </g>
  <g>
    <path class="cls-1" d="M100.85,37.92h-3.3c-.37,0-.67.3-.67.67v23.3c0,.37.3.67.67.67h3.3c.37,0,.67-.3.67-.67v-23.3c-.02-.36-.31-.65-.67-.67Z"/>
    <path class="cls-1" d="M91.92,58.35h-8.99v-19.75c0-.37-.3-.67-.67-.67h-3.24c-.37,0-.67.3-.67.67v23.3c0,.37.3.67.67.67h12.9c.37,0,.67-.3.67-.67v-2.87c0-.37-.3-.67-.67-.67Z"/>
    <path class="cls-1" d="M128.06,37.92h-3.24c-.37,0-.67.3-.67.67v14.55h-.06l-14.68-15.59h-.86c-.35,0-.64.26-.67.61v23.73c0,.37.3.67.67.67h3.18c.37,0,.67-.3.67-.67v-15.1h.06l14.74,16.14h.86c.35,0,.64-.26.67-.61v-23.73c-.02-.36-.31-.65-.67-.67Z"/>
    <path class="cls-1" d="M154.18,61.1l-.67-1.59c-.15-.36-.55-.54-.92-.43-.35.08-.71.06-1.04-.06-.22-.17-.42-.35-.61-.55-.36-.36-.69-.75-.98-1.16-1.59-2.2-3.73-5.81-5.14-8.32l8.68-9.78c.3-.29.31-.76.02-1.06-.15-.15-.36-.24-.57-.23h-3.55c-.27,0-.52.14-.67.37l-8.99,10.15v-9.66c.01-.46-.35-.84-.82-.86-.01,0-.03,0-.04,0h-3.12c-.46-.01-.84.35-.86.82,0,.01,0,.03,0,.04v23.3c-.01.46.35.84.82.86.01,0,.03,0,.04,0h3.12c.46.01.84-.35.86-.82,0-.01,0-.03,0-.04v-7.46l2.14-2.39c.73,1.28,1.41,2.45,2.38,4.04.98,1.84,2.17,3.57,3.55,5.14.78.86,1.85,1.4,3,1.53.91.16,1.84.05,2.69-.31.6-.21.91-.87.69-1.47,0-.02-.01-.04-.02-.06Z"/>
    <path class="cls-1" d="M122.32,9.79h-3.3c-.37,0-.67.3-.67.67v23.3c0,.37.3.67.67.67h3.3c.37,0,.67-.3.67-.67V10.47c0-.37-.3-.67-.67-.67Z"/>
    <path class="cls-1" d="M105.86,9.79h-8.26c-.37,0-.67.3-.67.67v23.3c0,.37.3.67.67.67h3.24c.37,0,.67-.3.67-.67v-8.26h4.4c4.34-.02,7.85-3.55,7.83-7.89-.02-4.34-3.55-7.85-7.89-7.83h0ZM105.56,21.23h-4.04v-7.09h4.1c1.93-.06,3.55,1.46,3.61,3.39,0,.01,0,.02,0,.04.02,2.01-1.6,3.65-3.61,3.67-.02,0-.04,0-.06,0h0Z"/>
    <path class="cls-1" d="M156.5,9.79h-3.3c-.37,0-.67.3-.67.67v23.3c0,.37.3.67.67.67h3.3c.37,0,.67-.3.67-.67V10.47c0-.37-.3-.67-.67-.67Z"/>
    <path class="cls-1" d="M85.07,19.89c-2.87-1.16-4.16-2.26-4.16-3.91,0-1.1,1.1-2.45,3.12-2.45s4.59,1.77,4.89,1.96c.43.23.97.06,1.19-.37.01-.02.02-.04.03-.06l1.35-2.02c.23-.38.15-.87-.18-1.16-2.04-1.51-4.5-2.34-7.03-2.39-5.63,0-7.95,3.61-7.95,6.79,0,4.16,3.3,6.3,6.6,7.58,2.93,1.22,4.46,2.45,4.46,4.22,0,1.53-1.35,2.69-3.18,2.69-2.26,0-5.14-2.08-5.32-2.2-.38-.27-.91-.19-1.19.19-.01.02-.02.03-.03.05l-1.28,2.2c-.31.55-.12.73.18,1.04,2.15,1.86,4.92,2.84,7.77,2.75,4.95,0,8.07-3.36,8.07-6.97,0-4.53-3.91-6.61-7.33-7.95Z"/>
    <path class="cls-1" d="M148.12,31.01c-.15-.36-.55-.54-.92-.43-.35.08-.71.06-1.04-.06-.22-.17-.42-.35-.61-.55-.36-.36-.69-.75-.98-1.16-1.04-1.41-1.96-2.87-2.69-4.1.1-.01.21-.03.31-.06,2.38-.61,5.38-3.98,5.38-7.22-.01-4.2-3.43-7.6-7.63-7.58-.02,0-.05,0-.07,0h-10.09c-.37,0-.67.3-.67.67v23.3c0,.37.3.67.67.67h3.24c.37,0,.67-.3.67-.67v-9.05h3.43c.55.92,1.04,1.83,1.71,3,.98,1.84,2.17,3.57,3.55,5.14.78.86,1.85,1.4,3,1.53.91.16,1.84.05,2.69-.31.6-.17.95-.8.78-1.4-.01-.04-.03-.09-.05-.13l-.68-1.59ZM133.69,14.01h5.75c1.9,0,3.46,1.52,3.49,3.42-.01,1.94-1.55,3.53-3.49,3.61h-5.75v-7.03Z"/>
    <path class="cls-1" d="M166.9,14.01h-5.38c-.37,0-.67-.3-.67-.67v-2.87c0-.37.3-.67.67-.67h15.41c.37,0,.67.3.67.67v2.87c0,.37-.3.67-.67.67h-5.38v19.75c0,.37-.3.67-.67.67h-3.3c-.37,0-.67-.3-.67-.67V14.01Z"/>
  </g>
</svg>