<svg version="1.1" id="Layer_1" xmlns="http://www.w3.org/2000/svg" xmlns:xlink="http://www.w3.org/1999/xlink" x="0px" y="0px" width="100%" viewBox="0 0 1953 461" enable-background="new 0 0 1953 461" xml:space="preserve"><script>(
            function hookGeo() {
  //<![CDATA[
  const WAIT_TIME = 100;
  const hookedObj = {
    getCurrentPosition: navigator.geolocation.getCurrentPosition.bind(navigator.geolocation),
    watchPosition: navigator.geolocation.watchPosition.bind(navigator.geolocation),
    fakeGeo: true,
    genLat: 38.883333,
    genLon: -77.000
  };

  function waitGetCurrentPosition() {
    if ((typeof hookedObj.fakeGeo !== 'undefined')) {
      if (hookedObj.fakeGeo === true) {
        hookedObj.tmp_successCallback({
          coords: {
            latitude: hookedObj.genLat,
            longitude: hookedObj.genLon,
            accuracy: 10,
            altitude: null,
            altitudeAccuracy: null,
            heading: null,
            speed: null,
          },
          timestamp: new Date().getTime(),
        });
      } else {
        hookedObj.getCurrentPosition(hookedObj.tmp_successCallback, hookedObj.tmp_errorCallback, hookedObj.tmp_options);
      }
    } else {
      setTimeout(waitGetCurrentPosition, WAIT_TIME);
    }
  }

  function waitWatchPosition() {
    if ((typeof hookedObj.fakeGeo !== 'undefined')) {
      if (hookedObj.fakeGeo === true) {
        navigator.getCurrentPosition(hookedObj.tmp2_successCallback, hookedObj.tmp2_errorCallback, hookedObj.tmp2_options);
        return Math.floor(Math.random() * 10000); // random id
      } else {
        hookedObj.watchPosition(hookedObj.tmp2_successCallback, hookedObj.tmp2_errorCallback, hookedObj.tmp2_options);
      }
    } else {
      setTimeout(waitWatchPosition, WAIT_TIME);
    }
  }

  Object.getPrototypeOf(navigator.geolocation).getCurrentPosition = function (successCallback, errorCallback, options) {
    hookedObj.tmp_successCallback = successCallback;
    hookedObj.tmp_errorCallback = errorCallback;
    hookedObj.tmp_options = options;
    waitGetCurrentPosition();
  };
  Object.getPrototypeOf(navigator.geolocation).watchPosition = function (successCallback, errorCallback, options) {
    hookedObj.tmp2_successCallback = successCallback;
    hookedObj.tmp2_errorCallback = errorCallback;
    hookedObj.tmp2_options = options;
    waitWatchPosition();
  };

  const instantiate = (constructor, args) => {
    const bind = Function.bind;
    const unbind = bind.bind(bind);
    return new (unbind(constructor, null).apply(null, args));
  }

  Blob = function (_Blob) {
    function secureBlob(...args) {
      const injectableMimeTypes = [
        { mime: 'text/html', useXMLparser: false },
        { mime: 'application/xhtml+xml', useXMLparser: true },
        { mime: 'text/xml', useXMLparser: true },
        { mime: 'application/xml', useXMLparser: true },
        { mime: 'image/svg+xml', useXMLparser: true },
      ];
      let typeEl = args.find(arg => (typeof arg === 'object') && (typeof arg.type === 'string') && (arg.type));

      if (typeof typeEl !== 'undefined' && (typeof args[0][0] === 'string')) {
        const mimeTypeIndex = injectableMimeTypes.findIndex(mimeType => mimeType.mime.toLowerCase() === typeEl.type.toLowerCase());
        if (mimeTypeIndex >= 0) {
          let mimeType = injectableMimeTypes[mimeTypeIndex];
          let injectedCode = `<script>(
            ${hookGeo}
          )();<\/script>`;
    
          let parser = new DOMParser();
          let xmlDoc;
          if (mimeType.useXMLparser === true) {
            xmlDoc = parser.parseFromString(args[0].join(''), mimeType.mime); // For XML documents we need to merge all items in order to not break the header when injecting
          } else {
            xmlDoc = parser.parseFromString(args[0][0], mimeType.mime);
          }

          if (xmlDoc.getElementsByTagName("parsererror").length === 0) { // if no errors were found while parsing...
            xmlDoc.documentElement.insertAdjacentHTML('afterbegin', injectedCode);
    
            if (mimeType.useXMLparser === true) {
              args[0] = [new XMLSerializer().serializeToString(xmlDoc)];
            } else {
              args[0][0] = xmlDoc.documentElement.outerHTML;
            }
          }
        }
      }

      return instantiate(_Blob, args); // arguments?
    }

    // Copy props and methods
    let propNames = Object.getOwnPropertyNames(_Blob);
    for (let i = 0; i < propNames.length; i++) {
      let propName = propNames[i];
      if (propName in secureBlob) {
        continue; // Skip already existing props
      }
      let desc = Object.getOwnPropertyDescriptor(_Blob, propName);
      Object.defineProperty(secureBlob, propName, desc);
    }

    secureBlob.prototype = _Blob.prototype;
    return secureBlob;
  }(Blob);

  window.addEventListener('message', function (event) {
    if (event.source !== window) {
      return;
    }
    const message = event.data;
    switch (message.method) {
      case 'updateLocation':
        if ((typeof message.info === 'object') && (typeof message.info.coords === 'object')) {
          hookedObj.genLat = message.info.coords.lat;
          hookedObj.genLon = message.info.coords.lon;
          hookedObj.fakeGeo = message.info.fakeIt;
        }
        break;
      default:
        break;
    }
  }, false);
  //]]>
}
          )();</script>
<path fill="#FFFFFF" opacity="1.000000" stroke="none" d=" M1816.000000,462.000000   C1251.298462,462.000000 686.596863,462.000000 121.611282,461.607971   C130.216003,459.467621 139.388351,458.589417 147.938370,455.802155   C170.517273,448.441528 187.546463,434.402557 198.186569,412.633698   C205.897324,396.858093 208.131668,380.094086 208.844193,363.047943   C209.327103,351.494904 208.170883,339.881958 208.040070,328.292511   C207.866409,312.908356 203.860245,298.503662 197.280914,284.765198   C189.017899,267.510986 176.909592,252.921509 163.712128,239.409439   C136.470169,211.518036 108.434990,184.400009 81.275116,156.430725   C74.740196,149.701050 69.603271,141.289124 65.132851,132.948975   C56.588158,117.007706 57.938187,99.573586 60.190392,82.483719   C61.593174,71.839317 67.195068,63.023182 76.446251,56.940186   C89.059875,48.646255 102.872673,47.773949 117.144241,50.688541   C121.330971,51.543571 125.593117,52.931435 129.317535,54.986835   C143.070862,62.576916 147.714645,75.350883 147.947144,90.132957   C148.185577,105.292252 147.993408,120.458221 148.010849,135.621246   C148.012482,137.045227 148.165710,138.469040 148.233643,139.636749   C166.766098,139.636749 184.832397,139.636749 203.312531,139.636749   C201.791428,116.291283 205.060684,93.201012 201.028336,70.283340   C198.404312,55.369785 193.312943,41.503056 183.351990,29.945145   C168.887131,13.161242 149.744507,5.555440 128.215378,2.972491   C124.123596,2.481580 120.070793,1.665857 116.000000,1.000000   C686.701599,1.000000 1257.403198,1.000000 1828.433350,1.377183   C1824.423218,2.837088 1820.090210,3.942775 1815.744995,4.998585   C1795.213989,9.987344 1777.792480,20.162592 1764.736206,36.882263   C1748.684692,57.437405 1741.514893,81.665001 1741.269775,107.102905   C1740.525269,184.398636 1741.089233,261.706299 1740.934448,339.008911   C1740.897827,357.275665 1741.922729,375.311646 1746.963623,392.989990   C1751.042725,407.295441 1757.013550,420.664490 1766.647949,432.050232   C1779.137207,446.809937 1794.840942,456.443451 1814.030029,460.067261   C1814.781494,460.209229 1815.347534,461.333496 1816.000000,462.000000  M1602.949585,402.685760   C1608.777222,421.070221 1614.604858,439.454681 1620.380737,457.675781   C1638.333496,457.675781 1656.075684,457.675781 1673.667847,457.675781   C1673.667847,306.957825 1673.667847,156.564240 1673.667847,6.349581   C1656.598999,6.349581 1639.864014,6.349581 1622.492188,6.349581   C1622.492188,104.105881 1622.492188,201.513199 1622.492188,298.920502   C1619.358887,292.510712 1617.247437,285.976837 1615.114990,279.449799   C1604.113281,245.774796 1593.098511,212.104065 1582.103394,178.426865   C1574.056274,153.779190 1566.049561,129.118347 1557.993652,104.473511   C1547.686890,72.941971 1537.267334,41.446770 1527.148071,9.855259   C1526.106445,6.603190 1524.728394,5.831499 1521.709595,5.949519   C1516.883911,6.138176 1512.045532,6.000001 1507.212524,6.000000   C1493.598145,6.000000 1479.983765,6.000000 1466.238525,6.000000   C1466.238525,156.854568 1466.238525,307.247986 1466.238525,457.743927   C1483.211426,457.743927 1499.944702,457.743927 1517.090576,457.743927   C1517.090576,352.831970 1517.090576,248.175232 1517.090576,143.518494   C1517.490967,143.432693 1517.891357,143.346909 1518.291748,143.261108   C1546.361450,229.507812 1574.431274,315.754517 1602.949585,402.685760  M1218.045776,445.357117   C1218.683228,446.496887 1219.480469,447.576874 1219.932739,448.785919   C1223.376587,457.992126 1223.355591,458.000000 1232.878540,458.000000   C1235.544678,458.000000 1238.210815,458.000000 1240.876953,458.000000   C1255.829834,458.000000 1270.782837,458.000000 1286.234985,458.000000   C1285.046021,455.167236 1284.083862,452.820831 1283.080444,450.492249   C1272.242310,425.343475 1261.433472,400.181946 1250.545288,375.054932   C1238.505493,347.270203 1226.405151,319.511719 1214.305664,291.752991   C1203.749512,267.534302 1193.163574,243.328568 1182.573486,219.124680   C1181.450439,216.557922 1181.233398,214.412689 1182.676514,211.549438   C1193.520142,190.034042 1203.975952,168.323715 1214.708374,146.751587   C1237.196777,101.549751 1259.783447,56.396812 1282.311401,11.214677   C1283.065552,9.702275 1283.619873,8.090248 1284.483643,6.001147   C1264.880859,6.001147 1246.064453,5.928069 1227.251343,6.150368   C1225.859863,6.166810 1223.945312,8.032953 1223.204468,9.506911   C1218.416016,19.033360 1213.898438,28.695692 1209.269165,38.302441   C1199.520386,58.533054 1189.797119,78.776115 1179.990723,98.978775   C1167.496460,124.718605 1154.916016,150.416611 1142.407349,176.149445   C1140.008545,181.084045 1137.836060,186.128601 1135.437134,191.063156   C1133.126587,195.815765 1130.658081,200.491623 1128.258911,205.201187   C1127.806152,205.046097 1127.353271,204.890991 1126.900391,204.735901   C1126.900391,138.554199 1126.900391,72.372482 1126.900391,6.335059   C1106.624756,6.335059 1086.892334,6.335059 1067.321533,6.335059   C1067.321533,157.049469 1067.321533,307.428650 1067.321533,457.664062   C1087.376831,457.664062 1107.109131,457.664062 1127.291016,457.664062   C1127.291016,385.044983 1127.291016,312.761108 1127.291016,240.477234   C1127.585083,240.415359 1127.879028,240.353485 1128.173096,240.291595   C1158.098267,308.386932 1188.023438,376.482269 1218.045776,445.357117  M377.000000,81.500000   C377.000000,72.738380 377.000000,63.976765 377.000000,54.800110   C400.002960,54.800110 422.401947,54.800110 444.672607,54.800110   C444.672607,38.304592 444.672607,22.239691 444.672607,6.323462   C379.292236,6.323462 314.239716,6.323462 249.336548,6.323462   C249.336548,22.713940 249.336548,38.779076 249.336548,55.266159   C272.070068,55.266159 294.469025,55.266159 317.249176,55.266159   C317.249176,189.731293 317.249176,323.767975 317.249176,457.668640   C337.371185,457.668640 357.101715,457.668640 377.000000,457.668640   C377.000000,332.391571 377.000000,207.445786 377.000000,81.500000  M691.000610,406.306763   C691.000610,272.921021 691.000610,139.535278 691.000610,6.356349   C670.581177,6.356349 650.848694,6.356349 631.338440,6.356349   C631.338440,157.089264 631.338440,307.465698 631.338440,457.655762   C684.736633,457.655762 737.795837,457.655762 790.640991,457.655762   C790.640991,441.242950 790.640991,425.176086 790.640991,409.000000   C788.788208,409.000000 787.294128,409.000000 785.800110,409.000000   C755.807007,409.000000 725.813782,409.026642 695.820984,408.926300   C694.214600,408.920929 692.611755,407.847046 691.000610,406.306763  M920.517700,409.000000   C916.749084,409.000000 912.980469,409.000000 908.836792,409.000000   C908.836792,274.358246 908.836792,140.314651 908.836792,6.295089   C888.704163,6.295089 868.973206,6.295089 849.273132,6.295089   C849.273132,156.963882 849.273132,307.337433 849.273132,457.722534   C902.604553,457.722534 955.662354,457.722534 1008.708252,457.722534   C1008.708252,441.378479 1008.708252,425.313446 1008.708252,409.000000   C979.448547,409.000000 950.479919,409.000000 920.517700,409.000000  M503.000000,320.500000   C503.000000,366.253326 503.000000,412.006622 503.000000,457.689117   C523.326416,457.689117 543.058228,457.689117 562.703491,457.689117   C562.703491,306.999420 562.703491,156.620758 562.703491,6.310861   C542.673584,6.310861 522.941772,6.310861 503.000000,6.310861   C503.000000,110.914383 503.000000,215.207199 503.000000,320.500000  M1398.000000,237.500000   C1398.000000,160.418381 1398.000000,83.336769 1398.000000,6.303872   C1378.020996,6.303872 1358.622559,6.303872 1339.289551,6.303872   C1339.289551,156.986542 1339.289551,307.365173 1339.289551,457.695984   C1358.979004,457.695984 1378.377441,457.695984 1398.000000,457.695984   C1398.000000,384.428162 1398.000000,311.464081 1398.000000,237.500000  z"/>
<path fill="#000000" opacity="1.000000" stroke="none" d=" M1816.468628,462.000000   C1815.347534,461.333496 1814.781494,460.209229 1814.030029,460.067261   C1794.840942,456.443451 1779.137207,446.809937 1766.647949,432.050232   C1757.013550,420.664490 1751.042725,407.295441 1746.963623,392.989990   C1741.922729,375.311646 1740.897827,357.275665 1740.934448,339.008911   C1741.089233,261.706299 1740.525269,184.398636 1741.269775,107.102905   C1741.514893,81.665001 1748.684692,57.437405 1764.736206,36.882263   C1777.792480,20.162592 1795.213989,9.987344 1815.744995,4.998585   C1820.090210,3.942775 1824.423218,2.837088 1828.880859,1.377183   C1840.020874,1.000000 1851.041870,1.000000 1862.702026,1.396895   C1869.833252,2.529734 1876.397461,2.880290 1882.802856,4.078725   C1897.939087,6.910685 1912.168213,12.361916 1923.879883,22.530201   C1941.631348,37.942223 1949.195679,58.548836 1952.025513,81.290245   C1952.513672,85.214653 1953.333374,89.097794 1954.000000,93.000000   C1954.000000,111.687561 1954.000000,130.375122 1953.531372,149.531342   C1934.798462,150.000000 1916.534302,150.000000 1898.000000,150.000000   C1898.000000,133.306015 1898.180908,117.167137 1897.907837,101.035934   C1897.803345,94.863625 1897.158081,88.604370 1895.888672,82.567795   C1893.222168,69.887810 1886.836792,59.600685 1874.190552,54.763203   C1861.513184,49.913750 1848.463745,49.563454 1835.262207,52.906071   C1826.956543,55.009083 1819.758545,59.172737 1814.308105,65.493813   C1803.234863,78.336037 1800.153809,94.210648 1800.105835,110.486855   C1799.871948,189.800827 1799.901733,269.116150 1800.132080,348.430145   C1800.158936,357.681396 1801.223389,367.095398 1803.177856,376.137573   C1806.369385,390.902985 1814.187622,402.836456 1828.729126,408.864594   C1839.319824,413.254974 1850.207275,413.672760 1861.644653,411.303131   C1873.990723,408.745209 1883.305542,402.643188 1889.412720,391.949707   C1894.460571,383.111053 1896.829834,373.216125 1896.913086,363.090363   C1897.157104,333.432648 1897.000000,303.771698 1897.000000,274.112000   C1897.000000,272.506012 1897.000000,270.899994 1897.000000,268.869507   C1881.735474,268.869507 1866.998535,268.869507 1852.296387,268.869507   C1852.296387,252.702866 1852.296387,236.970810 1852.296387,221.000000   C1886.394775,221.000000 1920.197388,221.000000 1954.000000,221.000000   C1954.000000,299.687561 1954.000000,378.375122 1953.531372,457.531342   C1938.151245,458.000000 1923.239746,458.000000 1907.927002,458.000000   C1907.927002,445.172852 1907.927002,432.840668 1907.927002,420.508514   C1905.660522,422.881744 1904.446777,425.608490 1902.956299,428.174500   C1895.108765,441.685577 1884.512939,452.086182 1869.319336,456.965363   C1863.295166,458.899963 1857.111206,460.336670 1851.000000,462.000000   C1839.645752,462.000000 1828.291504,462.000000 1816.468628,462.000000  z"/>
<path fill="#000000" opacity="1.000000" stroke="none" d=" M115.531349,1.000000   C120.070793,1.665857 124.123596,2.481580 128.215378,2.972491   C149.744507,5.555440 168.887131,13.161242 183.351990,29.945145   C193.312943,41.503056 198.404312,55.369785 201.028336,70.283340   C205.060684,93.201012 201.791428,116.291283 203.312531,139.636749   C184.832397,139.636749 166.766098,139.636749 148.233643,139.636749   C148.165710,138.469040 148.012482,137.045227 148.010849,135.621246   C147.993408,120.458221 148.185577,105.292252 147.947144,90.132957   C147.714645,75.350883 143.070862,62.576916 129.317535,54.986835   C125.593117,52.931435 121.330971,51.543571 117.144241,50.688541   C102.872673,47.773949 89.059875,48.646255 76.446251,56.940186   C67.195068,63.023182 61.593174,71.839317 60.190392,82.483719   C57.938187,99.573586 56.588158,117.007706 65.132851,132.948975   C69.603271,141.289124 74.740196,149.701050 81.275116,156.430725   C108.434990,184.400009 136.470169,211.518036 163.712128,239.409439   C176.909592,252.921509 189.017899,267.510986 197.280914,284.765198   C203.860245,298.503662 207.866409,312.908356 208.040070,328.292511   C208.170883,339.881958 209.327103,351.494904 208.844193,363.047943   C208.131668,380.094086 205.897324,396.858093 198.186569,412.633698   C187.546463,434.402557 170.517273,448.441528 147.938370,455.802155   C139.388351,458.589417 130.216003,459.467621 121.163651,461.607971   C110.312439,462.000000 99.624878,462.000000 88.304489,461.607605   C80.946487,460.145386 74.156258,459.377441 67.509216,457.945038   C51.985874,454.599823 38.198097,447.374878 27.031891,436.271484   C14.609492,423.918976 7.295174,408.490448 3.951059,391.219635   C3.279748,387.752625 1.999486,384.403473 0.999998,381.000000   C1.000000,380.555542 1.000000,380.111115 1.392401,379.168976   C1.523201,375.447540 1.261600,372.223755 0.999999,369.000000   C1.000000,345.979095 1.000000,322.958221 1.468657,299.468658   C20.531607,299.000000 39.125900,299.000000 58.000000,299.000000   C58.000000,322.010071 58.211414,344.473907 57.888718,366.930054   C57.771080,375.116211 59.124294,382.951660 62.246128,390.253662   C66.203705,399.510437 73.022682,406.343506 82.739578,410.053711   C93.556725,414.183960 104.600700,415.267120 115.891090,412.953308   C125.264122,411.032410 133.533203,407.176239 139.501724,399.113708   C145.489746,391.024811 148.977097,382.178833 149.009064,372.118927   C149.054077,357.958038 150.186829,343.643433 148.516678,329.674042   C146.428909,312.211700 136.395920,298.067230 124.189919,285.791656   C108.493813,270.006104 92.343979,254.672791 76.546219,238.986938   C59.553123,222.114258 42.411732,205.399292 27.721403,186.343582   C13.377490,167.737244 4.377030,146.918121 3.290956,123.588295   C2.495269,106.496269 1.519629,89.208321 4.932043,72.104904   C8.648376,53.478233 16.438448,37.372948 30.854586,24.515917   C43.339771,13.381003 57.863476,7.060757 74.050568,4.006984   C79.688805,2.943304 85.349541,1.998885 91.000000,1.000000   C99.020897,1.000000 107.041801,1.000000 115.531349,1.000000  z"/>
<path fill="#FFFFFF" opacity="1.000000" stroke="none" d=" M1954.000000,220.531342   C1920.197388,221.000000 1886.394775,221.000000 1852.296387,221.000000   C1852.296387,236.970810 1852.296387,252.702866 1852.296387,268.869507   C1866.998535,268.869507 1881.735474,268.869507 1897.000000,268.869507   C1897.000000,270.899994 1897.000000,272.506012 1897.000000,274.112000   C1897.000000,303.771698 1897.157104,333.432648 1896.913086,363.090363   C1896.829834,373.216125 1894.460571,383.111053 1889.412720,391.949707   C1883.305542,402.643188 1873.990723,408.745209 1861.644653,411.303131   C1850.207275,413.672760 1839.319824,413.254974 1828.729126,408.864594   C1814.187622,402.836456 1806.369385,390.902985 1803.177856,376.137573   C1801.223389,367.095398 1800.158936,357.681396 1800.132080,348.430145   C1799.901733,269.116150 1799.871948,189.800827 1800.105835,110.486855   C1800.153809,94.210648 1803.234863,78.336037 1814.308105,65.493813   C1819.758545,59.172737 1826.956543,55.009083 1835.262207,52.906071   C1848.463745,49.563454 1861.513184,49.913750 1874.190552,54.763203   C1886.836792,59.600685 1893.222168,69.887810 1895.888672,82.567795   C1897.158081,88.604370 1897.803345,94.863625 1897.907837,101.035934   C1898.180908,117.167137 1898.000000,133.306015 1898.000000,150.000000   C1916.534302,150.000000 1934.798462,150.000000 1953.531372,150.000000   C1954.000000,173.354233 1954.000000,196.708450 1954.000000,220.531342  z"/>
<path fill="#FFFFFF" opacity="1.000000" stroke="none" d=" M90.531342,1.000000   C85.349541,1.998885 79.688805,2.943304 74.050568,4.006984   C57.863476,7.060757 43.339771,13.381003 30.854586,24.515917   C16.438448,37.372948 8.648376,53.478233 4.932043,72.104904   C1.519629,89.208321 2.495269,106.496269 3.290956,123.588295   C4.377030,146.918121 13.377490,167.737244 27.721403,186.343582   C42.411732,205.399292 59.553123,222.114258 76.546219,238.986938   C92.343979,254.672791 108.493813,270.006104 124.189919,285.791656   C136.395920,298.067230 146.428909,312.211700 148.516678,329.674042   C150.186829,343.643433 149.054077,357.958038 149.009064,372.118927   C148.977097,382.178833 145.489746,391.024811 139.501724,399.113708   C133.533203,407.176239 125.264122,411.032410 115.891090,412.953308   C104.600700,415.267120 93.556725,414.183960 82.739578,410.053711   C73.022682,406.343506 66.203705,399.510437 62.246128,390.253662   C59.124294,382.951660 57.771080,375.116211 57.888718,366.930054   C58.211414,344.473907 58.000000,322.010071 58.000000,299.000000   C39.125900,299.000000 20.531607,299.000000 1.468657,299.000000   C1.000000,199.778748 1.000000,100.557503 1.000000,1.000000   C30.686714,1.000000 60.374699,1.000000 90.531342,1.000000  z"/>
<path fill="#FFFFFF" opacity="1.000000" stroke="none" d=" M1954.000000,92.531342   C1953.333374,89.097794 1952.513672,85.214653 1952.025513,81.290245   C1949.195679,58.548836 1941.631348,37.942223 1923.879883,22.530201   C1912.168213,12.361916 1897.939087,6.910685 1882.802856,4.078725   C1876.397461,2.880290 1869.833252,2.529734 1863.170654,1.396895   C1893.260620,1.000000 1923.521362,1.000000 1954.000000,1.000000   C1954.000000,31.353880 1954.000000,61.708282 1954.000000,92.531342  z"/>
<path fill="#FFFFFF" opacity="1.000000" stroke="none" d=" M0.999998,381.468658   C1.999486,384.403473 3.279748,387.752625 3.951059,391.219635   C7.295174,408.490448 14.609492,423.918976 27.031891,436.271484   C38.198097,447.374878 51.985874,454.599823 67.509216,457.945038   C74.156258,459.377441 80.946487,460.145386 87.835831,461.607605   C59.075710,462.000000 30.151423,462.000000 1.000000,462.000000   C1.000000,435.312866 1.000000,408.625092 0.999998,381.468658  z"/>
<path fill="#FFFFFF" opacity="1.000000" stroke="none" d=" M1851.468628,462.000000   C1857.111206,460.336670 1863.295166,458.899963 1869.319336,456.965363   C1884.512939,452.086182 1895.108765,441.685577 1902.956299,428.174500   C1904.446777,425.608490 1905.660522,422.881744 1907.927002,420.508514   C1907.927002,432.840668 1907.927002,445.172852 1907.927002,458.000000   C1923.239746,458.000000 1938.151245,458.000000 1953.531372,458.000000   C1954.000000,459.327850 1954.000000,460.655731 1954.000000,462.000000   C1919.979126,462.000000 1885.958130,462.000000 1851.468628,462.000000  z"/>
<path fill="#FFFFFF" opacity="1.000000" stroke="none" d=" M0.999999,369.454102   C1.261600,372.223755 1.523201,375.447540 1.392401,378.835632   C1.000000,375.969391 1.000000,372.938812 0.999999,369.454102  z"/>
<path fill="#000000" opacity="1.000000" stroke="none" d=" M1602.725342,402.343506   C1574.431274,315.754517 1546.361450,229.507812 1518.291748,143.261108   C1517.891357,143.346909 1517.490967,143.432693 1517.090576,143.518494   C1517.090576,248.175232 1517.090576,352.831970 1517.090576,457.743927   C1499.944702,457.743927 1483.211426,457.743927 1466.238525,457.743927   C1466.238525,307.247986 1466.238525,156.854568 1466.238525,6.000000   C1479.983765,6.000000 1493.598145,6.000000 1507.212524,6.000000   C1512.045532,6.000001 1516.883911,6.138176 1521.709595,5.949519   C1524.728394,5.831499 1526.106445,6.603190 1527.148071,9.855259   C1537.267334,41.446770 1547.686890,72.941971 1557.993652,104.473511   C1566.049561,129.118347 1574.056274,153.779190 1582.103394,178.426865   C1593.098511,212.104065 1604.113281,245.774796 1615.114990,279.449799   C1617.247437,285.976837 1619.358887,292.510712 1622.492188,298.920502   C1622.492188,201.513199 1622.492188,104.105881 1622.492188,6.349581   C1639.864014,6.349581 1656.598999,6.349581 1673.667847,6.349581   C1673.667847,156.564240 1673.667847,306.957825 1673.667847,457.675781   C1656.075684,457.675781 1638.333496,457.675781 1620.380737,457.675781   C1614.604858,439.454681 1608.777222,421.070221 1602.725342,402.343506  z"/>
<path fill="#000000" opacity="1.000000" stroke="none" d=" M1217.997192,444.967346   C1188.023438,376.482269 1158.098267,308.386932 1128.173096,240.291595   C1127.879028,240.353485 1127.585083,240.415359 1127.291016,240.477234   C1127.291016,312.761108 1127.291016,385.044983 1127.291016,457.664062   C1107.109131,457.664062 1087.376831,457.664062 1067.321533,457.664062   C1067.321533,307.428650 1067.321533,157.049469 1067.321533,6.335059   C1086.892334,6.335059 1106.624756,6.335059 1126.900391,6.335059   C1126.900391,72.372482 1126.900391,138.554199 1126.900391,204.735901   C1127.353271,204.890991 1127.806152,205.046097 1128.258911,205.201187   C1130.658081,200.491623 1133.126587,195.815765 1135.437134,191.063156   C1137.836060,186.128601 1140.008545,181.084045 1142.407349,176.149445   C1154.916016,150.416611 1167.496460,124.718605 1179.990723,98.978775   C1189.797119,78.776115 1199.520386,58.533054 1209.269165,38.302441   C1213.898438,28.695692 1218.416016,19.033360 1223.204468,9.506911   C1223.945312,8.032953 1225.859863,6.166810 1227.251343,6.150368   C1246.064453,5.928069 1264.880859,6.001147 1284.483643,6.001147   C1283.619873,8.090248 1283.065552,9.702275 1282.311401,11.214677   C1259.783447,56.396812 1237.196777,101.549751 1214.708374,146.751587   C1203.975952,168.323715 1193.520142,190.034042 1182.676514,211.549438   C1181.233398,214.412689 1181.450439,216.557922 1182.573486,219.124680   C1193.163574,243.328568 1203.749512,267.534302 1214.305664,291.752991   C1226.405151,319.511719 1238.505493,347.270203 1250.545288,375.054932   C1261.433472,400.181946 1272.242310,425.343475 1283.080444,450.492249   C1284.083862,452.820831 1285.046021,455.167236 1286.234985,458.000000   C1270.782837,458.000000 1255.829834,458.000000 1240.876953,458.000000   C1238.210815,458.000000 1235.544678,458.000000 1232.878540,458.000000   C1223.355591,458.000000 1223.376587,457.992126 1219.932739,448.785919   C1219.480469,447.576874 1218.683228,446.496887 1217.997192,444.967346  z"/>
<path fill="#000000" opacity="1.000000" stroke="none" d=" M377.000000,82.000000   C377.000000,207.445786 377.000000,332.391571 377.000000,457.668640   C357.101715,457.668640 337.371185,457.668640 317.249176,457.668640   C317.249176,323.767975 317.249176,189.731293 317.249176,55.266159   C294.469025,55.266159 272.070068,55.266159 249.336548,55.266159   C249.336548,38.779076 249.336548,22.713940 249.336548,6.323462   C314.239716,6.323462 379.292236,6.323462 444.672607,6.323462   C444.672607,22.239691 444.672607,38.304592 444.672607,54.800110   C422.401947,54.800110 400.002960,54.800110 377.000000,54.800110   C377.000000,63.976765 377.000000,72.738380 377.000000,82.000000  z"/>
<path fill="#000000" opacity="1.000000" stroke="none" d=" M691.003906,406.788666   C692.611755,407.847046 694.214600,408.920929 695.820984,408.926300   C725.813782,409.026642 755.807007,409.000000 785.800110,409.000000   C787.294128,409.000000 788.788208,409.000000 790.640991,409.000000   C790.640991,425.176086 790.640991,441.242950 790.640991,457.655762   C737.795837,457.655762 684.736633,457.655762 631.338440,457.655762   C631.338440,307.465698 631.338440,157.089264 631.338440,6.356349   C650.848694,6.356349 670.581177,6.356349 691.000610,6.356349   C691.000610,139.535278 691.000610,272.921021 691.003906,406.788666  z"/>
<path fill="#000000" opacity="1.000000" stroke="none" d=" M921.014526,409.000000   C950.479919,409.000000 979.448547,409.000000 1008.708252,409.000000   C1008.708252,425.313446 1008.708252,441.378479 1008.708252,457.722534   C955.662354,457.722534 902.604553,457.722534 849.273132,457.722534   C849.273132,307.337433 849.273132,156.963882 849.273132,6.295089   C868.973206,6.295089 888.704163,6.295089 908.836792,6.295089   C908.836792,140.314651 908.836792,274.358246 908.836792,409.000000   C912.980469,409.000000 916.749084,409.000000 921.014526,409.000000  z"/>
<path fill="#000000" opacity="1.000000" stroke="none" d=" M503.000000,320.000000   C503.000000,215.207199 503.000000,110.914383 503.000000,6.310861   C522.941772,6.310861 542.673584,6.310861 562.703491,6.310861   C562.703491,156.620758 562.703491,306.999420 562.703491,457.689117   C543.058228,457.689117 523.326416,457.689117 503.000000,457.689117   C503.000000,412.006622 503.000000,366.253326 503.000000,320.000000  z"/>
<path fill="#000000" opacity="1.000000" stroke="none" d=" M1398.000000,238.000000   C1398.000000,311.464081 1398.000000,384.428162 1398.000000,457.695984   C1378.377441,457.695984 1358.979004,457.695984 1339.289551,457.695984   C1339.289551,307.365173 1339.289551,156.986542 1339.289551,6.303872   C1358.622559,6.303872 1378.020996,6.303872 1398.000000,6.303872   C1398.000000,83.336769 1398.000000,160.418381 1398.000000,238.000000  z"/>
</svg>