<svg id="Layer_1" data-name="Layer 1" xmlns="http://www.w3.org/2000/svg" viewBox="0 0 1000 1000"><defs><style>.cls-1{fill:#ddf98f;}.cls-2{fill:#1b2c46;}</style></defs><circle class="cls-1" cx="500" cy="500" r="499"/><path class="cls-2" d="M488,817,283.67,407.44,222,345.75,370.64,224.4,531.43,551l89-167.87L529.41,276H779.18Z"/><path class="cls-2" d="M766.54,361.07c0-7.24,5.22-14,13.79-14s13.79,6.75,13.79,14-5.22,14-13.79,14S766.54,368.31,766.54,361.07Zm24.88,0c0-6.14-4.19-11.82-11.09-11.82s-11.09,5.68-11.09,11.82,4.19,11.81,11.09,11.81S791.42,367.16,791.42,361.07Zm-16,7.31V352.87h6a5.16,5.16,0,0,1,5.29,5.3,5,5,0,0,1-3.46,4.92l3.31,5.29h-2.7l-3.09-4.95h-3v4.95Zm5.79-7.05a3.19,3.19,0,0,0,0-6.36h-3.39v6.36Z"/></svg>